PathFileType	4	(X/Y/Z)	/Users/niels/Desktop/University/Third Semester/Perception and Action/Exam/Gymnastics Motion Tracking/Code for Gym Tracking/Analyzed Data/Webcam_Backflip/id1_1_trajectory_Sports2D/id1_1_trajectory_Sports2D_px_person00.trc
DataRate	CameraRate	NumFrames	NumMarkers	Units	OrigDataRate	OrigDataStartFrame	OrigNumFrames
29.874476987447697	29.874476987447697	9	22	m	29.874476987447697	0	239
Frame#	Time	Hip			RHip			RKnee			RAnkle			RBigToe			RSmallToe			RHeel			LHip			LKnee			LAnkle			LBigToe			LSmallToe			LHeel			Neck			Head			Nose			RShoulder			RElbow			RWrist			LShoulder			LElbow			LWrist		
		X1	Y1	Z1	X2	Y2	Z2	X3	Y3	Z3	X4	Y4	Z4	X5	Y5	Z5	X6	Y6	Z6	X7	Y7	Z7	X8	Y8	Z8	X9	Y9	Z9	X10	Y10	Z10	X11	Y11	Z11	X12	Y12	Z12	X13	Y13	Z13	X14	Y14	Z14	X15	Y15	Z15	X16	Y16	Z16	X17	Y17	Z17	X18	Y18	Z18	X19	Y19	Z19	X20	Y20	Z20	X21	Y21	Z21	X22	Y22	Z22
0	0.0	0.927914277183304	-0.598187962666116	0.0	0.9264420811820405	-0.5952351465360581	0.0	0.9293946992285252	-0.6970693598730655	0.0	0.9175853347554335	-0.8077526126646717	0.0	0.9618500682373701	-0.8284214850957943	0.0	0.9544700546484123	-0.8328483789009709	0.0	0.9057836994579477	-0.826942044990843	0.0	0.9338218446153136	-0.5952343434054602	0.0	0.930871515843489	-0.6955933357254003	0.0	0.9190666977590722	-0.8048020723440736	0.0	0.9603820882770934	-0.8239795919387034	0.0	0.9544743046893485	-0.8225075985181969	0.0	0.9043145322296398	-0.8210410684671126	0.0	0.9412032748935782	-0.44027022739768773	0.0	0.9795765106395705	-0.37385739501580556	0.0	0.9780975424282341	-0.4181339769805442	0.0	0.926445316117895	-0.45798507697280333	0.0	0.9500664949933298	-0.5273441107588493	0.0	1.0179627198569217	-0.5435648034737152	0.0	0.9249589482899622	-0.45650250208436777	0.0	0.9352857908201317	-0.5229109617688007	0.0	0.9884411532349453	-0.5420968849274362	0.0
1	0.033473389355742296	0.9275853970448398	-0.5986700293258753	0.0	0.9258782569979978	-0.5968312773241997	0.0	0.9294715061043425	-0.6977283745319784	0.0	0.9173604154840214	-0.807615764887373	0.0	0.9617106774964458	-0.828500079217498	0.0	0.9547788856954367	-0.8322384905317153	0.0	0.9061556205629648	-0.8265254526654436	0.0	0.934587270494823	-0.59613433577958	0.0	0.9310111599340374	-0.6965688200963125	0.0	0.9192349741750455	-0.8045329670430265	0.0	0.9605429945617117	-0.8245876031885492	0.0	0.954992719690441	-0.8228408317013105	0.0	0.9050657700150507	-0.8207448885316516	0.0	0.9410573514114023	-0.4401093624136066	0.0	0.9798824017605791	-0.37427162544473874	0.0	0.9791756433921067	-0.41866337608054527	0.0	0.9263253832449242	-0.45758802125461695	0.0	0.9529823598514301	-0.5260855892024046	0.0	1.0216554151917612	-0.5389930530016263	0.0	0.9262114459624067	-0.4561725099389117	0.0	0.9383118215508418	-0.5220277428280664	0.0	0.9915340363282605	-0.5378801035311891	0.0
2	0.06694677871148459	0.9272848412521357	-0.5990829159914498	0.0	0.9254660729277426	-0.5980759418173656	0.0	0.9295060590550621	-0.6982567410074246	0.0	0.9171512891560653	-0.8075270528709123	0.0	0.9613760677040154	-0.8285240046526807	0.0	0.9547857133467607	-0.831752151486238	0.0	0.9064751980895588	-0.8261577723858224	0.0	0.9351770848112559	-0.5968527685139586	0.0	0.9310750891635913	-0.697389807817291	0.0	0.9193438422437339	-0.8042988783696365	0.0	0.9604470295303029	-0.8250801082566948	0.0	0.9552198758353785	-0.8231501418664066	0.0	0.9056918588956852	-0.8204930499117736	0.0	0.9408283720552367	-0.43992533989693827	0.0	0.9802183201358804	-0.37456442317362676	0.0	0.9800822661880622	-0.4190083827250359	0.0	0.9263648168848561	-0.45721794688905076	0.0	0.955816398998627	-0.5248345380246312	0.0	1.0250439177282595	-0.534696250679962	0.0	0.9268551700138198	-0.4557692152483318	0.0	0.9401927974082834	-0.5211117052505516	0.0	0.9902704067083984	-0.5341922450416106	0.0
3	0.1004201680672269	0.9270312065368577	-0.5994077495545168	0.0	0.9252528200899948	-0.5988033307409224	0.0	0.9295140508474634	-0.6985992740623277	0.0	0.9169605590179514	-0.8074921132018376	0.0	0.9608287766705556	-0.828454843693119	0.0	0.9544238445740527	-0.8314464691517239	0.0	0.9066821227897099	-0.8258484303730083	0.0	0.9354867040979002	-0.597293439486034	0.0	0.9310176811352135	-0.6979497077977244	0.0	0.9193783714743503	-0.8041177598006719	0.0	0.9599940894176217	-0.8254373039215335	0.0	0.955020175991524	-0.8234564092579794	0.0	0.9061335012014251	-0.8203094648696027	0.0	0.9405060887294796	-0.4397224448017919	0.0	0.9805769686395912	-0.3746659186978687	0.0	0.9807274197066675	-0.41908598310837486	0.0	0.9266139150174857	-0.45688493709791916	0.0	0.958510542415505	-0.5235757515817766	0.0	1.027898986413669	-0.5309077049412754	0.0	0.9266454227883991	-0.45527659439659934	0.0	0.940538705639166	-0.5201627316992199	0.0	0.983248434140029	-0.5313566029638729	0.0
4	0.13389355742296918	0.9268073918218281	-0.5996223410403269	0.0	0.9251725072146305	-0.5990366025720759	0.0	0.9295297341739992	-0.6987751702032181	0.0	0.9168169712018885	-0.8074920780819359	0.0	0.9602461987748803	-0.8282880437165204	0.0	0.9539059813125851	-0.8313066762096152	0.0	0.9067664920180448	-0.8255894901149234	0.0	0.9354648798821853	-0.5974371233464993	0.0	0.9308588638663898	-0.6982103600326447	0.0	0.9193718819036447	-0.8039718531420471	0.0	0.9593569957322345	-0.8256204970085174	0.0	0.9545317431233836	-0.8236833720115266	0.0	0.9064008708707691	-0.8202013647177218	0.0	0.9401353999649092	-0.43950960582778276	0.0	0.9808759322818749	-0.37457514501419775	0.0	0.9811204904116918	-0.4189381907719424	0.0	0.9270076196265075	-0.45657403935958163	0.0	0.9610290625131762	-0.5222912293440265	0.0	1.0301262970003402	-0.5277702155609878	0.0	0.9258351096111925	-0.4547559660979358	0.0	0.9400931010244725	-0.5192072708267803	0.0	0.9736398730199496	-0.5293108681484787	0.0
5	0.16736694677871147	0.926565052867036	-0.5996617980585571	0.0	0.925125492808622	-0.5988765383868541	0.0	0.9295393817019196	-0.6988232005798343	0.0	0.9167809496195268	-0.8075134413798793	0.0	0.9598702505021403	-0.8280372999368614	0.0	0.9535561229694677	-0.831252097063649	0.0	0.9067888785674814	-0.8253711883844024	0.0	0.9351143771140537	-0.5972996882872437	0.0	0.9306576105427803	-0.6982058248708947	0.0	0.9193555646389574	-0.8038134251206106	0.0	0.9588584878956625	-0.8255342573014487	0.0	0.9540583536663779	-0.8236264427396035	0.0	0.906512208241182	-0.8201335579918066	0.0	0.9397711240208573	-0.43928513513013656	0.0	0.9809734990379959	-0.3743552207490519	0.0	0.9813419504754497	-0.4186880239930984	0.0	0.9274543491744146	-0.45626719883304206	0.0	0.9633716430462962	-0.520985931564169	0.0	1.0318057154423106	-0.5253253142745674	0.0	0.9249471528992415	-0.4543004817541781	0.0	0.9402549532032305	-0.5182731324246054	0.0	0.9674667437364302	-0.5277038965506218	0.0
6	0.2008403361344538	0.926253828508737	-0.5994646413834246	0.0	0.9250395844874668	-0.5984544708239572	0.0	0.9294922967116797	-0.6987619318037381	0.0	0.9168892593270482	-0.8075375091546317	0.0	0.9598526210726386	-0.827717130877875	0.0	0.9536060217332497	-0.8311510331392449	0.0	0.9068261531698245	-0.8251699728243526	0.0	0.9345236966858982	-0.5969454501493604	0.0	0.9304528470836801	-0.6980312635225622	0.0	0.9193216883568189	-0.8036087871539931	0.0	0.9587425474669207	-0.8251478840664815	0.0	0.9538377409703415	-0.823139749521928	0.0	0.9064656763798069	-0.8200095761861382	0.0	0.9394702227357246	-0.4390336239219768	0.0	0.9807412765707473	-0.3741172423475641	0.0	0.9814930369738102	-0.41849035856939454	0.0	0.9279258643071991	-0.45596756001102345	0.0	0.9655790570187789	-0.5196964006651092	0.0	1.0331615704139234	-0.5235276422492228	0.0	0.924410992113056	-0.45395970729137347	0.0	0.9420886902649718	-0.5173504921465675	0.0	0.9694967472194479	-0.5261849775329529	0.0
7	0.23431372549019608	0.9258488105363513	-0.599016522468002	0.0	0.924872070048803	-0.5979309734054693	0.0	0.9293604667206029	-0.698572497205053	0.0	0.9171176882928018	-0.8075359431815416	0.0	0.960237359231779	-0.8273450339511109	0.0	0.9541447741856713	-0.8308799507526261	0.0	0.9069237193484637	-0.8249495949016128	0.0	0.9338413714918986	-0.5964948647897214	0.0	0.9302578292502752	-0.6977788876920227	0.0	0.919242536490374	-0.8033699982964185	0.0	0.9591021512052957	-0.8245411899602502	0.0	0.9539682344690786	-0.8222613323876267	0.0	0.9062647121904503	-0.8197276961140317	0.0	0.9393015424163389	-0.43874042351222065	0.0	0.9801320949102854	-0.37396983676566825	0.0	0.9816345953521266	-0.4184794922194995	0.0	0.928452710414348	-0.4556862199267821	0.0	0.9677051014074957	-0.5184961887210696	0.0	1.0344368773759056	-0.5222668539732401	0.0	0.9244272192245186	-0.45372750766284436	0.0	0.945890067614592	-0.516394681830134	0.0	0.9804310098006644	-0.5245521690772378	0.0
8	0.26778711484593837	0.9253853042586982	-0.5983773471716374	0.0	0.924617027671571	-0.5974504668488377	0.0	0.929166996141565	-0.6982319740144448	0.0	0.917389166310067	-0.8075038898738074	0.0	0.960982216997012	-0.826951912796222	0.0	0.9551027172443254	-0.8304113638984136	0.0	0.9070792823979171	-0.8246954118097116	0.0	0.9332122456751265	-0.5960665011565653	0.0	0.9300851544758841	-0.6974862774867047	0.0	0.9191110464875507	-0.8031483938132998	0.0	0.9598621915998822	-0.823848944006497	0.0	0.9544261381977553	-0.8211871167888749	0.0	0.9059475643535372	-0.8192845246418667	0.0	0.9393320169799392	-0.4384471622369931	0.0	0.9792299838831658	-0.37394970653342824	0.0	0.9817779535189395	-0.41868857032488294	0.0	0.929048596588182	-0.45543140386660286	0.0	0.9697730149961932	-0.517482246640425	0.0	1.035760441917972	-0.5213997450983427	0.0	0.9250210754060256	-0.45359825601750564	0.0	0.9512866965750149	-0.5154245670855029	0.0	0.9968411152361935	-0.5227931530851901	0.0
